<mxfile host="app.diagrams.net" modified="2023-02-07T13:38:48.540Z" agent="5.0 (Windows)" etag="ippybtZ30HxK5QjiSC-j" version="20.8.18" type="github">
  <diagram id="kgpKYQtTHZ0yAKxKKP6v" name="Page-1">
    <mxGraphModel dx="2284" dy="1893" grid="1" gridSize="10" guides="1" tooltips="1" connect="1" arrows="1" fold="1" page="1" pageScale="1" pageWidth="850" pageHeight="1100" math="0" shadow="0">
      <root>
        <mxCell id="0" />
        <mxCell id="1" parent="0" />
        <mxCell id="a-7JB9tWbcIdKE0PISEG-4" style="edgeStyle=orthogonalEdgeStyle;rounded=0;orthogonalLoop=1;jettySize=auto;html=1;exitX=1;exitY=0.25;exitDx=0;exitDy=0;entryX=0.004;entryY=0.436;entryDx=0;entryDy=0;entryPerimeter=0;" edge="1" parent="1" source="a-7JB9tWbcIdKE0PISEG-1" target="a-7JB9tWbcIdKE0PISEG-2">
          <mxGeometry relative="1" as="geometry" />
        </mxCell>
        <mxCell id="a-7JB9tWbcIdKE0PISEG-5" style="edgeStyle=orthogonalEdgeStyle;rounded=0;orthogonalLoop=1;jettySize=auto;html=1;exitX=1;exitY=0.75;exitDx=0;exitDy=0;entryX=-0.016;entryY=0.615;entryDx=0;entryDy=0;entryPerimeter=0;" edge="1" parent="1" source="a-7JB9tWbcIdKE0PISEG-1" target="a-7JB9tWbcIdKE0PISEG-3">
          <mxGeometry relative="1" as="geometry" />
        </mxCell>
        <mxCell id="a-7JB9tWbcIdKE0PISEG-8" style="edgeStyle=orthogonalEdgeStyle;rounded=0;orthogonalLoop=1;jettySize=auto;html=1;exitX=1;exitY=0;exitDx=0;exitDy=0;entryX=0;entryY=0.5;entryDx=0;entryDy=0;" edge="1" parent="1" source="a-7JB9tWbcIdKE0PISEG-1" target="a-7JB9tWbcIdKE0PISEG-7">
          <mxGeometry relative="1" as="geometry" />
        </mxCell>
        <mxCell id="a-7JB9tWbcIdKE0PISEG-1" value="&lt;div&gt;evaluer benefice issu de la captation et revente d&#39;oxygene pour une centrale d&#39;electrolise de l&#39;eau.&lt;/div&gt;&lt;div&gt;&lt;br&gt;&lt;/div&gt;&lt;div&gt;Par an/mois/exercice&lt;br&gt;&lt;/div&gt;" style="rounded=0;whiteSpace=wrap;html=1;" vertex="1" parent="1">
          <mxGeometry x="-810" y="210" width="180" height="190" as="geometry" />
        </mxCell>
        <mxCell id="a-7JB9tWbcIdKE0PISEG-2" value="évaluer les revenus générés" style="rounded=0;whiteSpace=wrap;html=1;" vertex="1" parent="1">
          <mxGeometry x="-530" y="110" width="240" height="110" as="geometry" />
        </mxCell>
        <mxCell id="a-7JB9tWbcIdKE0PISEG-18" style="edgeStyle=orthogonalEdgeStyle;rounded=0;orthogonalLoop=1;jettySize=auto;html=1;exitX=1;exitY=0.25;exitDx=0;exitDy=0;entryX=0;entryY=0.25;entryDx=0;entryDy=0;" edge="1" parent="1" source="a-7JB9tWbcIdKE0PISEG-3" target="a-7JB9tWbcIdKE0PISEG-6">
          <mxGeometry relative="1" as="geometry" />
        </mxCell>
        <mxCell id="a-7JB9tWbcIdKE0PISEG-3" value="évaluer les coûts necessaires" style="rounded=0;whiteSpace=wrap;html=1;" vertex="1" parent="1">
          <mxGeometry x="-530" y="330" width="250" height="130" as="geometry" />
        </mxCell>
        <mxCell id="a-7JB9tWbcIdKE0PISEG-19" style="edgeStyle=orthogonalEdgeStyle;rounded=0;orthogonalLoop=1;jettySize=auto;html=1;exitX=1;exitY=0.25;exitDx=0;exitDy=0;entryX=0;entryY=0.5;entryDx=0;entryDy=0;" edge="1" parent="1" source="a-7JB9tWbcIdKE0PISEG-6" target="a-7JB9tWbcIdKE0PISEG-16">
          <mxGeometry relative="1" as="geometry" />
        </mxCell>
        <mxCell id="a-7JB9tWbcIdKE0PISEG-20" style="edgeStyle=orthogonalEdgeStyle;rounded=0;orthogonalLoop=1;jettySize=auto;html=1;exitX=1;exitY=0.75;exitDx=0;exitDy=0;entryX=0;entryY=0.5;entryDx=0;entryDy=0;" edge="1" parent="1" source="a-7JB9tWbcIdKE0PISEG-6" target="a-7JB9tWbcIdKE0PISEG-17">
          <mxGeometry relative="1" as="geometry" />
        </mxCell>
        <mxCell id="a-7JB9tWbcIdKE0PISEG-6" value="stopper l&#39;usines pendant l&#39;installation d&#39;un module captation oxygènes ?" style="rounded=0;whiteSpace=wrap;html=1;" vertex="1" parent="1">
          <mxGeometry x="-190" y="330" width="190" height="70" as="geometry" />
        </mxCell>
        <mxCell id="a-7JB9tWbcIdKE0PISEG-10" style="edgeStyle=orthogonalEdgeStyle;rounded=0;orthogonalLoop=1;jettySize=auto;html=1;exitX=1;exitY=0.25;exitDx=0;exitDy=0;entryX=0;entryY=0.25;entryDx=0;entryDy=0;" edge="1" parent="1" source="a-7JB9tWbcIdKE0PISEG-7" target="a-7JB9tWbcIdKE0PISEG-9">
          <mxGeometry relative="1" as="geometry" />
        </mxCell>
        <mxCell id="a-7JB9tWbcIdKE0PISEG-7" value="risques pour l&#39;environnement/ santé des ouvriers et leurs potentiels coûts" style="rounded=0;whiteSpace=wrap;html=1;" vertex="1" parent="1">
          <mxGeometry x="-520" y="-60" width="240" height="100" as="geometry" />
        </mxCell>
        <mxCell id="a-7JB9tWbcIdKE0PISEG-9" value="estimer l&#39;augmentation du taux d’oxygène dans l&#39;atmosphère autour de l&#39;usine" style="rounded=0;whiteSpace=wrap;html=1;" vertex="1" parent="1">
          <mxGeometry x="-230" y="-140" width="230" height="80" as="geometry" />
        </mxCell>
        <mxCell id="a-7JB9tWbcIdKE0PISEG-12" value="par secteur" style="swimlane;whiteSpace=wrap;html=1;" vertex="1" parent="1">
          <mxGeometry x="-230" width="280" height="280" as="geometry" />
        </mxCell>
        <mxCell id="a-7JB9tWbcIdKE0PISEG-11" value="prix au litre de l&#39;oxygene 1bar" style="rounded=0;whiteSpace=wrap;html=1;" vertex="1" parent="a-7JB9tWbcIdKE0PISEG-12">
          <mxGeometry x="50" y="40" width="170" height="40" as="geometry" />
        </mxCell>
        <mxCell id="a-7JB9tWbcIdKE0PISEG-14" value="estimation de la demande" style="rounded=0;whiteSpace=wrap;html=1;" vertex="1" parent="a-7JB9tWbcIdKE0PISEG-12">
          <mxGeometry x="50" y="100" width="170" height="40" as="geometry" />
        </mxCell>
        <mxCell id="a-7JB9tWbcIdKE0PISEG-15" value="coût des travaux" style="rounded=0;whiteSpace=wrap;html=1;" vertex="1" parent="1">
          <mxGeometry x="-200" y="470" width="190" height="60" as="geometry" />
        </mxCell>
        <mxCell id="a-7JB9tWbcIdKE0PISEG-16" value="durée des travaux" style="rounded=0;whiteSpace=wrap;html=1;" vertex="1" parent="1">
          <mxGeometry x="60" y="330" width="150" height="30" as="geometry" />
        </mxCell>
        <mxCell id="a-7JB9tWbcIdKE0PISEG-17" value="benefice de l&#39;usine / u temps" style="rounded=0;whiteSpace=wrap;html=1;" vertex="1" parent="1">
          <mxGeometry x="60" y="375" width="160" height="40" as="geometry" />
        </mxCell>
      </root>
    </mxGraphModel>
  </diagram>
</mxfile>
